<?xml version="1.0" encoding="utf-8"?>
<svg viewBox="70.815 70.833 372.2031 48" width="372.203" height="48" xmlns="http://www.w3.org/2000/svg">
  <path d="M 88.257 107.833 L 81.341 98.181 L 78.263 98.181 L 87.041 87.199 L 92.551 87.199 L 84.457 97.345 L 84.571 94.685 L 94.223 107.833 Z M 73.817 107.833 L 73.817 80.093 L 79.099 80.093 L 79.099 107.833 Z" style="fill: #fff;"/>
  <path d="M 97.365 107.833 L 97.365 80.093 L 102.647 80.093 L 102.647 107.833 Z M 94.781 84.045 L 94.781 80.093 L 102.647 80.093 L 102.647 84.045 Z" style="fill: #fff;"/>
  <path d="M 108.678 115.433 L 108.678 87.199 L 112.858 87.199 L 112.858 96.091 L 112.212 96.053 Q 112.364 92.899 113.523 90.771 Q 114.682 88.643 116.62 87.598 Q 118.558 86.553 120.952 86.553 Q 123.156 86.553 124.923 87.351 Q 126.69 88.149 127.963 89.593 Q 129.236 91.037 129.92 92.956 Q 130.604 94.875 130.604 97.079 L 130.604 97.877 Q 130.604 100.119 129.939 102.038 Q 129.274 103.957 128.001 105.42 Q 126.728 106.883 124.942 107.7 Q 123.156 108.517 120.952 108.517 Q 118.634 108.517 116.715 107.548 Q 114.796 106.579 113.618 104.546 Q 112.44 102.513 112.288 99.283 L 113.96 101.829 L 113.96 115.433 Z M 119.622 104.071 Q 121.332 104.071 122.605 103.235 Q 123.878 102.399 124.6 100.898 Q 125.322 99.397 125.322 97.497 Q 125.322 95.521 124.6 94.077 Q 123.878 92.633 122.605 91.816 Q 121.332 90.999 119.622 90.999 Q 118.064 90.999 116.753 91.683 Q 115.442 92.367 114.625 93.697 Q 113.808 95.027 113.808 96.889 L 113.808 98.409 Q 113.808 100.195 114.644 101.449 Q 115.48 102.703 116.81 103.387 Q 118.14 104.071 119.622 104.071 Z" style="fill: #fff;"/>
  <path d="M 145.144 108.555 Q 142.408 108.555 140.318 107.681 Q 138.228 106.807 136.784 105.306 Q 135.34 103.805 134.599 101.905 Q 133.858 100.005 133.858 97.953 L 133.858 97.155 Q 133.858 95.027 134.637 93.108 Q 135.416 91.189 136.879 89.688 Q 138.342 88.187 140.432 87.332 Q 142.522 86.477 145.144 86.477 Q 147.766 86.477 149.856 87.332 Q 151.946 88.187 153.409 89.688 Q 154.872 91.189 155.632 93.108 Q 156.392 95.027 156.392 97.155 L 156.392 97.953 Q 156.392 100.005 155.651 101.905 Q 154.91 103.805 153.466 105.306 Q 152.022 106.807 149.932 107.681 Q 147.842 108.555 145.144 108.555 Z M 145.144 104.033 Q 147.082 104.033 148.412 103.178 Q 149.742 102.323 150.426 100.86 Q 151.11 99.397 151.11 97.535 Q 151.11 95.635 150.407 94.172 Q 149.704 92.709 148.355 91.854 Q 147.006 90.999 145.144 90.999 Q 143.282 90.999 141.933 91.854 Q 140.584 92.709 139.862 94.172 Q 139.14 95.635 139.14 97.535 Q 139.14 99.397 139.843 100.86 Q 140.546 102.323 141.876 103.178 Q 143.206 104.033 145.144 104.033 Z" style="fill: #fff;"/>
  <path d="M 169.574 108.517 Q 167.408 108.517 165.584 107.719 Q 163.76 106.921 162.43 105.477 Q 161.1 104.033 160.378 102.114 Q 159.656 100.195 159.656 97.953 L 159.656 97.155 Q 159.656 94.951 160.359 93.013 Q 161.062 91.075 162.335 89.631 Q 163.608 88.187 165.413 87.37 Q 167.218 86.553 169.422 86.553 Q 171.854 86.553 173.697 87.598 Q 175.54 88.643 176.642 90.733 Q 177.744 92.823 177.858 95.977 L 176.3 94.153 L 176.3 80.093 L 181.582 80.093 L 181.582 107.833 L 177.402 107.833 L 177.402 99.055 L 178.314 99.055 Q 178.2 102.209 177.022 104.318 Q 175.844 106.427 173.925 107.472 Q 172.006 108.517 169.574 108.517 Z M 170.752 104.071 Q 172.31 104.071 173.602 103.368 Q 174.894 102.665 175.673 101.316 Q 176.452 99.967 176.452 98.143 L 176.452 96.623 Q 176.452 94.799 175.654 93.564 Q 174.856 92.329 173.564 91.664 Q 172.272 90.999 170.752 90.999 Q 169.042 90.999 167.731 91.816 Q 166.42 92.633 165.679 94.115 Q 164.938 95.597 164.938 97.573 Q 164.938 99.549 165.698 101.012 Q 166.458 102.475 167.769 103.273 Q 169.08 104.071 170.752 104.071 Z" style="fill: #fff;"/>
  <path d="M 187.04 107.833 L 187.04 102.513 Q 187.04 100.765 187.591 99.473 Q 188.142 98.181 189.415 97.174 Q 190.688 96.167 192.778 95.255 L 197.49 93.165 Q 199.238 92.367 200.169 91.208 Q 201.1 90.049 201.1 88.225 Q 201.1 86.211 199.903 85.014 Q 198.706 83.817 196.502 83.817 Q 194.298 83.817 193.101 85.033 Q 191.904 86.249 191.904 88.415 L 186.698 88.415 Q 186.698 85.831 187.8 83.76 Q 188.902 81.689 191.068 80.492 Q 193.234 79.295 196.502 79.295 Q 199.77 79.295 201.936 80.473 Q 204.102 81.651 205.204 83.608 Q 206.306 85.565 206.306 87.959 L 206.306 88.453 Q 206.306 91.569 204.558 93.64 Q 202.81 95.711 199.428 97.231 L 194.716 99.321 Q 193.386 99.891 192.854 100.518 Q 192.322 101.145 192.322 102.209 L 192.322 104.641 L 191.03 103.235 L 206.42 103.235 L 206.42 107.833 Z" style="fill: #fff;"/>
  <path d="M 210.869 107.833 L 210.869 102.513 Q 210.869 100.765 211.42 99.473 Q 211.971 98.181 213.244 97.174 Q 214.517 96.167 216.607 95.255 L 221.319 93.165 Q 223.067 92.367 223.998 91.208 Q 224.929 90.049 224.929 88.225 Q 224.929 86.211 223.732 85.014 Q 222.535 83.817 220.331 83.817 Q 218.127 83.817 216.93 85.033 Q 215.733 86.249 215.733 88.415 L 210.527 88.415 Q 210.527 85.831 211.629 83.76 Q 212.731 81.689 214.897 80.492 Q 217.063 79.295 220.331 79.295 Q 223.599 79.295 225.765 80.473 Q 227.931 81.651 229.033 83.608 Q 230.135 85.565 230.135 87.959 L 230.135 88.453 Q 230.135 91.569 228.387 93.64 Q 226.639 95.711 223.257 97.231 L 218.545 99.321 Q 217.215 99.891 216.683 100.518 Q 216.151 101.145 216.151 102.209 L 216.151 104.641 L 214.859 103.235 L 230.249 103.235 L 230.249 107.833 Z" style="fill: #fff;"/>
  <path d="M 239.242 107.833 L 239.242 83.437 L 240.914 84.729 L 233.58 84.729 L 233.58 80.093 L 244.6 80.093 L 244.6 107.833 Z" style="fill: #fff;"/>
  <path d="M 263.267 97.687 L 263.267 95.141 L 269.727 95.141 Q 271.969 95.141 273.375 94.286 Q 274.781 93.431 275.465 92.006 Q 276.149 90.581 276.149 88.833 Q 276.149 87.047 275.465 85.622 Q 274.781 84.197 273.375 83.361 Q 271.969 82.525 269.727 82.525 L 263.267 82.525 L 263.267 79.979 L 269.233 79.979 Q 272.577 79.979 274.762 81.081 Q 276.947 82.183 278.03 84.121 Q 279.113 86.059 279.113 88.567 L 279.113 89.099 Q 279.113 91.569 278.03 93.526 Q 276.947 95.483 274.762 96.585 Q 272.577 97.687 269.233 97.687 Z M 261.139 107.833 L 261.139 79.979 L 264.027 79.979 L 264.027 107.833 Z" style="fill: #fff;"/>
  <path d="M 293 108.479 Q 290.416 108.479 288.459 107.586 Q 286.502 106.693 285.153 105.192 Q 283.804 103.691 283.101 101.829 Q 282.398 99.967 282.398 98.029 L 282.398 97.497 Q 282.398 95.559 283.12 93.678 Q 283.842 91.797 285.21 90.315 Q 286.578 88.833 288.535 87.94 Q 290.492 87.047 293 87.047 Q 295.546 87.047 297.503 87.94 Q 299.46 88.833 300.828 90.315 Q 302.196 91.797 302.899 93.678 Q 303.602 95.559 303.602 97.497 L 303.602 98.029 Q 303.602 99.967 302.918 101.829 Q 302.234 103.691 300.885 105.192 Q 299.536 106.693 297.56 107.586 Q 295.584 108.479 293 108.479 Z M 293 105.933 Q 295.508 105.933 297.237 104.812 Q 298.966 103.691 299.878 101.848 Q 300.79 100.005 300.79 97.763 Q 300.79 95.483 299.859 93.64 Q 298.928 91.797 297.18 90.714 Q 295.432 89.631 293 89.631 Q 290.606 89.631 288.858 90.714 Q 287.11 91.797 286.179 93.64 Q 285.248 95.483 285.248 97.763 Q 285.248 100.005 286.16 101.848 Q 287.072 103.691 288.801 104.812 Q 290.53 105.933 293 105.933 Z" style="fill: #fff;"/>
  <path d="M 309.417 107.833 L 309.417 87.731 L 311.697 87.731 L 311.697 96.129 L 311.469 96.129 Q 311.469 91.721 313.407 89.612 Q 315.345 87.503 319.487 87.503 L 320.133 87.503 L 320.133 90.087 L 318.955 90.087 Q 315.687 90.087 313.977 91.778 Q 312.267 93.469 312.267 96.737 L 312.267 107.833 Z" style="fill: #fff;"/>
  <path d="M 332.401 108.061 Q 330.311 108.061 328.791 107.453 Q 327.271 106.845 326.435 105.382 Q 325.599 103.919 325.599 101.449 L 325.599 81.385 L 328.335 81.385 L 328.335 101.867 Q 328.335 103.615 329.285 104.546 Q 330.235 105.477 331.983 105.477 L 335.593 105.477 L 335.593 108.061 Z M 321.989 89.897 L 321.989 87.731 L 335.593 87.731 L 335.593 89.897 Z" style="fill: #fff;"/>
  <path d="M 341.66 107.833 L 341.66 86.173 Q 341.66 83.019 343.294 81.499 Q 344.928 79.979 348.196 79.979 L 350.742 79.979 L 350.742 82.411 L 347.664 82.411 Q 346.068 82.411 345.232 83.247 Q 344.396 84.083 344.396 85.603 L 344.396 107.833 Z M 338.734 90.087 L 338.734 87.883 L 351.16 87.883 L 351.16 90.087 Z" style="fill: #fff;"/>
  <path d="M 364.159 108.479 Q 361.575 108.479 359.618 107.586 Q 357.661 106.693 356.312 105.192 Q 354.963 103.691 354.26 101.829 Q 353.557 99.967 353.557 98.029 L 353.557 97.497 Q 353.557 95.559 354.279 93.678 Q 355.001 91.797 356.369 90.315 Q 357.737 88.833 359.694 87.94 Q 361.651 87.047 364.159 87.047 Q 366.705 87.047 368.662 87.94 Q 370.619 88.833 371.987 90.315 Q 373.355 91.797 374.058 93.678 Q 374.761 95.559 374.761 97.497 L 374.761 98.029 Q 374.761 99.967 374.077 101.829 Q 373.393 103.691 372.044 105.192 Q 370.695 106.693 368.719 107.586 Q 366.743 108.479 364.159 108.479 Z M 364.159 105.933 Q 366.667 105.933 368.396 104.812 Q 370.125 103.691 371.037 101.848 Q 371.949 100.005 371.949 97.763 Q 371.949 95.483 371.018 93.64 Q 370.087 91.797 368.339 90.714 Q 366.591 89.631 364.159 89.631 Q 361.765 89.631 360.017 90.714 Q 358.269 91.797 357.338 93.64 Q 356.407 95.483 356.407 97.763 Q 356.407 100.005 357.319 101.848 Q 358.231 103.691 359.96 104.812 Q 361.689 105.933 364.159 105.933 Z" style="fill: #fff;"/>
  <path d="M 380.751 107.833 L 380.751 80.093 L 383.601 80.093 L 383.601 107.833 Z M 377.825 82.411 L 377.825 80.093 L 383.601 80.093 L 383.601 82.411 Z" style="fill: #fff;"/>
  <path d="M 392.031 107.833 L 392.031 87.731 L 394.843 87.731 L 394.843 107.833 Z M 388.801 90.011 L 388.801 87.731 L 394.843 87.731 L 394.843 90.011 Z M 392.639 84.007 Q 391.613 84.007 391.1 83.456 Q 390.587 82.905 390.587 82.069 Q 390.587 81.233 391.1 80.682 Q 391.613 80.131 392.639 80.131 Q 393.665 80.131 394.159 80.682 Q 394.653 81.233 394.653 82.069 Q 394.653 82.905 394.159 83.456 Q 393.665 84.007 392.639 84.007 Z" style="fill: #fff;"/>
  <path d="M 411.333 108.479 Q 408.749 108.479 406.792 107.586 Q 404.835 106.693 403.486 105.192 Q 402.137 103.691 401.434 101.829 Q 400.731 99.967 400.731 98.029 L 400.731 97.497 Q 400.731 95.559 401.453 93.678 Q 402.175 91.797 403.543 90.315 Q 404.911 88.833 406.868 87.94 Q 408.825 87.047 411.333 87.047 Q 413.879 87.047 415.836 87.94 Q 417.793 88.833 419.161 90.315 Q 420.529 91.797 421.232 93.678 Q 421.935 95.559 421.935 97.497 L 421.935 98.029 Q 421.935 99.967 421.251 101.829 Q 420.567 103.691 419.218 105.192 Q 417.869 106.693 415.893 107.586 Q 413.917 108.479 411.333 108.479 Z M 411.333 105.933 Q 413.841 105.933 415.57 104.812 Q 417.299 103.691 418.211 101.848 Q 419.123 100.005 419.123 97.763 Q 419.123 95.483 418.192 93.64 Q 417.261 91.797 415.513 90.714 Q 413.765 89.631 411.333 89.631 Q 408.939 89.631 407.191 90.714 Q 405.443 91.797 404.512 93.64 Q 403.581 95.483 403.581 97.763 Q 403.581 100.005 404.493 101.848 Q 405.405 103.691 407.134 104.812 Q 408.863 105.933 411.333 105.933 Z" style="fill: #fff;"/>
  <path d="M 434.326 107.833 L 434.326 101.031 L 441.014 101.031 L 441.014 107.833 Z" style="fill: rgb(241, 48, 36);"/>
</svg>